<?xml version="1.0" encoding="utf-8"?>
<!-- Generator: Adobe Illustrator 26.5.0, SVG Export Plug-In . SVG Version: 6.00 Build 0)  -->
<svg version="1.1" id="Calque_1" xmlns="http://www.w3.org/2000/svg" xmlns:xlink="http://www.w3.org/1999/xlink" x="0px" y="0px"
	 viewBox="0 0 287 104.9" style="enable-background:new 0 0 287 104.9;" xml:space="preserve">
<style type="text/css">
	.st0{fill:#FF7D00;}
	.st1{fill:#1D1D1B;}
	.st2{fill-rule:evenodd;clip-rule:evenodd;}
	.st3{fill-rule:evenodd;clip-rule:evenodd;fill:#FF7D00;}
</style>
<g>
	<g>
		<path class="st0" d="M18.5,64.4c-1.9-0.7-2.8,1.6-4.7,0.9c-1.9-0.7-1-3-2.9-3.7c-1.9-0.7-2.8,1.6-4.7,0.9c-1.9-0.7-1-3-2.9-3.7
			c0,0,0,0,0,0c-1.2,2.2-2,4.7-2.6,7.2c-0.3,1.5-0.6,3-0.7,4.6c-0.1,0.9,0,1.8,0,2.9h18.1c0.9-2.5,1.8-4.4,2.7-5.8
			C19.7,66.8,20.2,65,18.5,64.4z"/>
		<path class="st1" d="M86.9,99.4l0.1-0.3c0.6-2.2,1-4.5,1.4-6.8c-1.6-0.6-3.3-1.2-4.9-1.7l-0.3-0.1l0-0.3c0.3-2.1,0.4-4.3,0.4-6.5
			c-1.7-0.3-3.4-0.6-5.1-0.8l-1.8-0.3c0,0,0,1.1,0,1.8c1.7,0.3,3.4,0.6,5,1l0.3,0.1l0,0.3c-0.1,2.1-0.3,4.2-0.6,6.2
			c1.6,0.5,3.2,1.2,4.8,1.8l0.3,0.1l-0.1,0.3c-0.4,2.1-0.9,4.2-1.5,6.3c0.9-0.2,1.8-0.4,2.7-0.6c-0.2-0.1-0.4-0.2-0.6-0.3L86.9,99.4
			z"/>
		<path class="st1" d="M91.2,86.3l-2.6-3.5c0,0.9,0,1.8,0,2.7C89.5,85.8,90.3,86,91.2,86.3z"/>
		<path class="st1" d="M96.3,93l-0.7-1c0,0.2,0,0.4-0.1,0.6C95.8,92.8,96.1,92.9,96.3,93z"/>
		<path class="st1" d="M89.7,97.4l0.1-0.2c0.5-2.4,0.9-4.8,1.1-7.2c-1.7-0.6-3.3-1.1-5-1.6l-0.3-0.1l0-0.3c0.2-2.2,0.2-4.5,0.1-6.8
			c-0.1,0-0.2,0-0.2,0c0,0-0.1,0-0.1,0c0,0,0,0,0,0c-1.9,0.6-3.8,1-5.5,1.1c1.4,0.2,2.8,0.4,4.1,0.7l0.3,0.1v0.3
			c0,2.2-0.1,4.4-0.4,6.6c1.6,0.5,3.3,1.1,4.9,1.7l0.3,0.1l0,0.3c-0.3,2.3-0.8,4.7-1.3,6.9c0.4,0.2,0.7,0.4,1.1,0.6
			c1-0.3,2.1-0.6,3.2-1c-0.7-0.4-1.4-0.7-2.1-1.1L89.7,97.4z"/>
		<path d="M80.9,92.6l-0.3-0.1l0.1-0.3c0.3-2,0.5-4.1,0.6-6.1c-1.7-0.4-3.3-0.7-5-0.9L76,85l0-0.3c0-0.8,0-1.6,0-2.4
			c-5.1-0.7-9.4-3.8-13-8.7c-2.3-3.1-7.8-10.2-7.8-10.2h24.9L67.3,46.2c-0.7-1-1.9-1.5-3.1-1.5H28.6c-12.5,0-21,5.8-25.3,14.2
			c0,0,0,0,0,0c1.9,0.7,1,3,2.9,3.7c1.9,0.7,2.8-1.6,4.7-0.9c1.9,0.7,1,3,2.9,3.7c1.9,0.7,2.8-1.6,4.7-0.9c1.7,0.6,1.2,2.4,2.3,3.3
			c0.4-0.6,0.9-1.2,1.3-1.7c1.9-1.9,4.2-2.6,7.6-2.7c2.1-0.1,3.3,0.7,4.5,2.4c1.8,2.4,3.5,4.9,5.3,7.4c0,0,0,0,0,0
			c0,0.1,0,0.2-0.1,0.3c-1,2.3-2.1,4.4-3.5,6.1c1.2,0.5,2.8-0.9,3.9-0.1c1.1,0.8-0.7,2.5,0.5,3.3c1.1,0.8,3-0.8,4.1,0
			c1.1,0.8-0.7,2.5,0.5,3.3c1.1,0.8,3-0.8,4.1,0c1.1,0.8-0.7,2.5,0.4,3.3c0.7,0.5,1.6,0.1,2.5-0.1c9,10.1,20.1,13.4,32.2,11.3
			c0.6-2,1.1-4.1,1.5-6.2C84.2,93.7,82.5,93.1,80.9,92.6z"/>
		<path class="st1" d="M92.3,95.3l0-0.2c0.4-2,0.6-4.1,0.8-6.2l-1.3-1.8c-1.2-0.4-2.4-0.8-3.6-1.1L88,86l0-0.2c0-1.2,0.1-2.4,0-3.7
			L88,82c-0.4-0.5-0.9-0.8-1.6-0.8c0.1,2.2,0,4.5-0.1,6.7c1.7,0.5,3.3,1,5,1.6l0.2,0.1l0,0.3c-0.2,2.4-0.6,4.9-1.1,7.3
			c0.8,0.4,1.6,0.8,2.4,1.2c0.7-0.2,1.3-0.5,2-0.7c0.3-0.1,0.7-0.3,1.1-0.5c-1.1-0.6-2.2-1.1-3.4-1.6L92.3,95.3z"/>
		<path class="st1" d="M95,93l0-0.2c0.1-0.4,0.1-0.9,0.1-1.3l-1.4-1.9c-0.2,1.8-0.4,3.6-0.7,5.4c1.2,0.5,2.4,1.1,3.6,1.7
			c0.9-0.5,1.8-1,1.8-1L97,93.9c-0.6-0.3-1.2-0.6-1.9-0.9L95,93z"/>
		<path class="st0" d="M49.5,89.4c-1.1-0.8,0.7-2.5-0.4-3.3c-1.1-0.8-3,0.8-4.1,0c-1.1-0.8,0.7-2.5-0.5-3.3c-1.1-0.8-3,0.8-4.1,0
			c-1.1-0.8,0.7-2.5-0.5-3.3c-1.1-0.8-2.7,0.6-3.9,0.1c-3.8,4.9-9.1,7.3-16.4,6.7c0,0,0,0,0,0c-1-0.1-1.9,0.5-2.3,1.3l-6.8,15.8
			c0,0,2.7,0.8,3.9,0.9c16.1,2.2,29.4-2.3,37.6-15.2C51.2,89.4,50.2,89.9,49.5,89.4z"/>
		<path class="st2" d="M26.9,17.1c-11.2,7.8-5.9,27.2,8.4,23C52,35.2,40.1,12.8,26.9,17.1L26.9,17.1z"/>
		<path class="st3" d="M41.7,17.8c4.9-2.7,16-8.6,6.8-0.8C44.6,20.3,44.3,21.1,41.7,17.8L41.7,17.8z"/>
		<path class="st3" d="M40.1,15.5c3.3-4.9,7.1-13-0.5-4.8c-1.3,1.4-4.6,3.1-2.2,4.7C38,15.8,39.7,16.1,40.1,15.5L40.1,15.5z"/>
		<path class="st3" d="M32.2,11c0.3-4.6-1.4-17.4-4.1-7.1C26.5,9.8,28.7,18.5,32.2,11L32.2,11z"/>
	</g>
	<g>
		<g>
			<path d="M100.6,39.9c6.6,0,13.7,3.5,15,12.1h-8c-1.1-3.3-3.5-4.5-7-4.5c-4.8,0-8,3.5-8,8.7c0,4.6,3.1,8.6,8,8.6
				c3.5,0,6.2-1.6,7.1-5h8c-1.2,9.1-8.3,12.6-15.1,12.6c-8.1,0-16.3-5.5-16.3-16.2C84.3,45.2,92.5,39.9,100.6,39.9z"/>
			<path d="M128.9,64.6h11.5v7.5h-19.8V40.2h8.3V64.6z"/>
			<path d="M159.7,65.3v6.7h-16.4v-6.7h4V47h-3.7v-6.7h15.7V47h-3.7v18.4H159.7z"/>
			<path d="M193.5,40.1h3v31.9h-8.3V57.4l-6.8,7.1h-1l-6.8-7.1v14.7h-8.3V40.1h3l12.6,13.8L193.5,40.1z"/>
			<path d="M224.8,55.4c2.6,1.3,4,3.9,4,6.8c0,5.5-3.5,9.7-10.1,9.7h-15.3V40.1h14.1c5.9,0,10.1,3.9,10.1,9.8
				C227.5,51.8,226.4,54.1,224.8,55.4z M211.7,47.3v5.3h5.1c1.6,0,2.4-1.2,2.5-2.5c0-1.4-0.8-2.8-2.5-2.8H211.7z M211.7,59.4v5.3
				h6.4c1.6,0,2.3-1.2,2.5-2.5c0-1-0.4-2-1.1-2.5c-0.4-0.2-0.8-0.3-1.4-0.3H211.7z"/>
			<path d="M253.8,47.5h-11.6V52h10.6v7.3h-10.6v5.2h12v7.6H234V40.2h19.9V47.5z"/>
			<path d="M287,70.8V72h-8.8l-5.5-10h-4.4v10H260V40.2c4.7,0,9.3,0,14,0c7.7,0,11.5,5.7,11.5,11.3c0,3.6-1.6,7.1-4.7,9.3L287,70.8z
				 M274,55.3c2.3,0,3.5-2,3.5-4c0-2-1.1-3.9-3.5-3.9h-5.8v7.9H274z"/>
		</g>
	</g>
	<g>
		<path class="st0" d="M96.9,83.6v-5h16.3v5h-5.4v17h-5.6v-17H96.9z"/>
		<path class="st0" d="M134.9,99.7v0.8h-6.1l-3.8-6.9h-3v6.9h-5.8v-22c3.3,0,6.4,0,9.7,0c5.3,0,7.9,3.9,7.9,7.8
			c0,2.5-1.1,4.9-3.3,6.4L134.9,99.7z M125.9,88.9c1.6,0,2.4-1.4,2.4-2.8c0-1.4-0.8-2.7-2.4-2.7h-4v5.4H125.9z"/>
		<path class="st0" d="M142.6,97.8l-1.3,2.7h-6v-0.8l10.1-21.4h2.6l10,21.4v0.8h-5.9l-1.3-2.7H142.6z M144.5,93h4.6l-2.3-5.3
			L144.5,93z"/>
		<path class="st0" d="M166.9,90.8l1.8-5.8l2.7-6.5h6.1v0.8l-9.5,21.4h-2.4l-9.6-21.4v-0.8h6.1l2.8,6.5L166.9,90.8L166.9,90.8z"/>
		<path class="st0" d="M193.6,83.5h-8v3.1h7.4v5h-7.4v3.6h8.3v5.2h-14v-22h13.7V83.5z"/>
		<path class="st0" d="M203.6,95.4h8v5.2h-13.7v-22h5.8V95.4z"/>
	</g>
</g>
</svg>
